<?xml version="1.0" standalone="no"?>
<!DOCTYPE svg PUBLIC "-//W3C//DTD SVG 20010904//EN"
 "http://www.w3.org/TR/2001/REC-SVG-20010904/DTD/svg10.dtd">
<svg version="1.0" xmlns="http://www.w3.org/2000/svg"
 width="239.000000pt" height="883.000000pt" viewBox="0 0 239.000000 883.000000"
 preserveAspectRatio="xMidYMid meet">

<g transform="translate(0.000000,883.000000) scale(0.100000,-0.100000)"
fill="#000000" stroke="none">
<path d="M75 8480 c-3 -6 1 -7 9 -4 18 7 21 14 7 14 -6 0 -13 -4 -16 -10z"/>
<path d="M140 8419 l-75 -71 78 67 c68 59 84 76 75 75 -2 0 -37 -32 -78 -71z"/>
<path d="M206 8367 c-71 -68 -130 -131 -132 -140 -2 -16 25 -17 357 -17 l359
0 0 -98 0 -97 90 -90 90 -90 0 -3199 0 -3199 -170 -177 -170 -178 0 -116 0
-116 -299 0 c-165 0 -306 -3 -315 -6 -14 -5 -16 -52 -16 -420 0 -269 3 -414
10 -414 6 0 10 24 10 52 l0 53 112 115 113 115 -112 -110 -113 -110 0 55 0 55
113 115 112 115 -113 -110 -112 -110 0 55 0 55 112 115 113 115 -113 -110
-112 -110 0 55 0 55 178 178 177 177 55 0 55 0 -100 -103 -100 -102 105 103
105 102 55 0 55 0 -100 -103 -100 -102 105 103 105 102 55 0 55 0 -100 -103
-100 -102 105 103 105 102 55 0 55 0 -100 -103 -100 -102 105 103 105 102 55
0 55 0 -100 -102 -100 -103 105 103 105 102 55 0 55 0 -100 -102 -100 -103
105 103 c96 92 109 102 143 102 20 0 37 5 37 10 0 6 -93 10 -260 10 l-260 0 0
115 0 115 260 0 c164 0 260 4 260 10 0 6 -93 11 -244 12 l-245 3 157 163 157
163 88 -1 c51 0 87 4 87 10 0 6 -37 10 -90 10 l-90 0 0 3190 0 3190 90 0 c53
0 90 4 90 10 0 6 -38 10 -93 10 l-92 0 -80 80 -80 80 173 0 c108 0 172 4 172
10 0 6 -67 10 -180 10 l-180 0 0 90 0 90 180 0 c136 0 180 3 180 12 0 7 57 71
127 143 l128 130 -135 -132 -135 -133 -55 0 -55 0 130 133 130 132 -135 -132
-135 -133 -55 0 -55 0 130 133 130 132 -135 -132 -135 -133 -55 0 -55 0 130
133 130 132 -135 -132 -135 -133 -55 0 -55 0 130 133 130 132 -135 -132 -135
-133 -55 0 -55 0 130 133 130 132 -135 -132 -135 -133 -55 0 -55 0 130 133
130 132 -135 -132 -135 -133 -55 0 -55 0 130 133 130 132 -135 -132 -135 -133
-55 0 -55 0 130 133 130 132 -135 -132 -135 -133 -60 0 -60 1 135 129 c74 71
133 129 130 129 -3 0 -63 -55 -134 -122z m-86 -7540 c0 -1 -22 -25 -50 -52
l-50 -49 0 52 0 52 50 0 c28 0 50 -1 50 -3z m15 -107 l-110 -111 -3 52 c-3 52
-2 53 55 111 56 57 59 58 113 58 l55 0 -110 -110z m60 -60 l-170 -170 -3 52
-3 52 118 118 118 118 55 0 55 0 -170 -170z"/>
<path d="M1405 8360 l-130 -130 -47 0 c-27 0 -48 -4 -48 -10 0 -6 63 -10 170
-10 l170 0 0 -90 0 -90 -170 0 c-107 0 -170 -4 -170 -10 0 -6 62 -10 167 -10
l168 0 -80 -80 -80 -80 -87 0 c-52 0 -88 -4 -88 -10 0 -6 33 -10 80 -10 l80 0
0 -3190 0 -3190 -80 0 c-47 0 -80 -4 -80 -10 0 -6 34 -10 83 -10 l82 1 157
-163 157 -163 -240 -3 c-148 -1 -239 -6 -239 -12 0 -6 93 -10 250 -10 l250 0
0 -115 0 -115 -250 0 c-160 0 -250 -4 -250 -10 0 -5 5 -10 11 -10 6 0 -30 -46
-81 -102 l-92 -103 98 103 99 103 54 -1 53 0 -92 -102 -92 -103 98 103 99 103
54 -1 53 0 -92 -102 -92 -103 98 103 99 103 54 -1 53 0 -92 -102 -92 -103 98
103 99 103 54 -1 53 0 -92 -102 -92 -103 98 103 99 103 54 -1 53 0 -92 -102
-92 -103 98 103 99 103 60 -1 60 0 -100 -103 -100 -102 105 103 105 102 55 0
55 0 -100 -103 -100 -102 105 103 105 102 55 0 55 0 -100 -102 -100 -103 105
103 105 102 55 0 55 0 -100 -103 -100 -102 105 103 c82 79 112 102 133 102 23
0 27 -4 27 -27 0 -21 -22 -51 -97 -128 l-98 -100 98 95 97 95 0 -55 0 -55 -98
-100 -97 -100 98 95 97 95 0 -55 0 -55 -97 -100 -98 -100 98 95 97 95 0 -55 0
-55 -98 -100 -97 -100 98 95 97 95 0 -55 0 -55 -97 -100 -98 -100 98 95 97 95
0 -55 0 -55 -82 -85 -83 -85 82 80 83 80 0 -55 c0 -41 -5 -59 -22 -79 l-23
-26 22 19 c20 17 23 17 23 3 0 -10 5 -17 10 -17 7 0 10 147 10 420 l0 420
-340 0 -340 0 0 121 0 121 -170 178 -170 178 0 3188 0 3189 90 90 90 90 0 102
0 103 380 0 c247 0 380 4 380 10 0 6 -12 10 -27 10 l-26 0 24 28 24 27 -31
-27 c-25 -23 -39 -28 -84 -28 l-55 0 85 88 85 87 -90 -87 -90 -88 -55 0 -55 0
130 133 130 132 -135 -132 -135 -133 -55 0 -55 0 130 133 130 132 -135 -132
-135 -133 -55 0 -55 0 130 133 130 132 -135 -132 -135 -133 -55 0 -55 0 130
133 130 132 -135 -132 -135 -133 -55 0 -55 0 130 133 130 132 -135 -132 -135
-133 -55 0 -55 0 130 133 130 132 -135 -132 -135 -133 -55 0 -55 0 130 130
c71 72 127 130 125 130 -3 0 -64 -58 -135 -130z"/>
<path d="M130 113 l-105 -108 108 105 c59 57 107 106 107 107 0 8 -13 -5 -110
-104z"/>
<path d="M190 55 c-24 -25 -42 -45 -39 -45 3 0 25 20 49 45 24 25 42 45 39 45
-3 0 -25 -20 -49 -45z"/>
</g>
</svg>
